# xmcd
#
# Track frame offsets:
#	150
#	32027
#	58985
#	99715
#	110777
#	137922
#	172915
#	178895
#
# Disc length: 2989 seconds
#
# Revision: 0
# Processed by: cddbd v1.5.2PL0 Copyright (c) Steve Scherf et al.
# Submitted via: audiograbber 1.83.01
#
DISCID=760bab08
DTITLE=Dread Zeppelin - The Song Remains Insane - The 'Live On Strawberry Chees
DTITLE=ecake' Sessions - Dread Zeppelin Live - Disc 1
DYEAR=1900
DGENRE=
TTITLE0=Black Dog
TTITLE1=Whole Lotta Love
TTITLE2=Heartbreaker
TTITLE3=Do The Claw
TTITLE4=Song Remains The Same
TTITLE5=Your Time Is Gonna Come
TTITLE6=In Through The Ed Door
TTITLE7=Stairway To Heaven
EXTD=
EXTT0=
EXTT1=
EXTT2=
EXTT3=
EXTT4=
EXTT5=
EXTT6=
EXTT7=
PLAYORDER=
